:version 1.10
:name ASF
:units
  mass 1
  length 1
  angle deg
:documentation
  ASF file generated by Kaydara
:root
  axis xyz
  order  tx ty tz rx ry rz
  position 0 0 0
  orientation 0 0 0
:bonedata
  begin
    id 1
    name RightUpLegDummy
    direction -0.718183 -0.695806 0.00816078
    length 4.904
    axis 0 0 0 xyz
  end
  begin
    id 2
    name RightUpLeg
    direction -0.0736652 -0.994202 0.0783343
    length 17.4976
    axis -2.72909 -3.00389 -4.00133 xyz
    dof rx ry rz
  end
  begin
    id 3
    name RightLeg
    direction -0.0389037 -0.994596 -0.0962598
    length 16.5821
    axis 3.95836 -18.5909 -4.46993 xyz
    dof rx ry rz
  end
  begin
    id 4
    name RightFoot
    direction -0.311643 -0.412678 0.855906
    length 3.77069
    axis -1.99483 -18.8351 -3.27644 xyz
    dof rx ry rz
  end
  begin
    id 5
    name RightToes
    direction -0.317852 0.0389852 0.947339
    length 3.85082
    axis -2.00228 -18.1713 -3.25211 xyz
    dof rx ry rz
  end
  begin
    id 6
    name SpineDummy
    direction 8.3039e-015 1 4.44677e-016
    length 4.6813
    axis 0 0 0 xyz
  end
  begin
    id 7
    name Spine
    direction -0.000262373 0.999988 0.00493267
    length 10.1015
    axis -0.00246081 0.00062579 0.0150362 xyz
    dof rx ry rz
  end
  begin
    id 8
    name Spine1
    direction 0 0 0
    length 0
    axis -0.00349562 0.000650293 0.0196666 xyz
    dof rx ry rz
  end
  begin
    id 9
    name HEadDummy
    direction -0.000343232 0.999999 0.00123745
    length 3.43865
    axis -0.00349562 0.000650293 0.0196666 xyz
  end
  begin
    id 10
    name HEad
    direction -0.0461221 0.980933 0.188796
    length 5.12695
    axis -0.00351404 -7.04812 0.0199272 xyz
    dof rx ry rz
  end
  begin
    id 11
    name LeftShoulder1Dummy
    direction 0.998904 -0.0399089 -0.0244534
    length 3.5433
    axis -0.00349562 0.000650293 0.0196666 xyz
  end
  begin
    id 12
    name LeftShoulder1
    direction 0.99951 1.64443e-005 0.0312999
    length 4.05031
    axis -0.00349562 0.000650293 0.0196666 xyz
    dof rx ry rz
  end
  begin
    id 13
    name LeftArm
    direction 0.984791 0.0515299 0.165927
    length 12.9126
    axis -64.823 -10.7743 5.20463 xyz
    dof rx ry rz
  end
  begin
    id 14
    name LeftForeArm
    direction 0.984968 0.0534808 0.16425
    length 10.8596
    axis -30.0462 -7.70601 1.87451 xyz
    dof rx ry rz
  end
  begin
    id 15
    name LeftHand
    direction 0.975871 0.0289682 0.216418
    length 6.62295
    axis -20.1348 -6.98077 1.86072 xyz
    dof rx ry rz
  end
  begin
    id 16
    name RightShoulderDummy
    direction -0.998877 -0.0405946 -0.0244307
    length 3.5433
    axis -0.00349562 0.000650293 0.0196666 xyz
  end
  begin
    id 17
    name RightShoulder
    direction -0.998933 -0.0249743 -0.0388558
    length 4.05031
    axis -0.0205316 -4.02113 1.41395 xyz
    dof rx ry rz
  end
  begin
    id 18
    name RightArm
    direction -0.997559 0.068664 0.0127103
    length 12.9638
    axis -67.3882 1.84188 -6.15987 xyz
    dof rx ry rz
  end
  begin
    id 19
    name RightForeArm
    direction -0.991508 0.0912848 0.0926241
    length 10.8312
    axis -22.1975 3.41087 -4.28711 xyz
    dof rx ry rz
  end
  begin
    id 20
    name RightHand
    direction -0.989262 0.0600788 0.133232
    length 6.57864
    axis -12.2911 2.17515 -4.39675 xyz
    dof rx ry rz
  end
  begin
    id 21
    name LeftUpLegDummy
    direction 0.718183 -0.695806 0.00816078
    length 4.904
    axis 0 0 0 xyz
  end
  begin
    id 22
    name LeftUpLeg
    direction 0.0831398 -0.99469 0.0606531
    length 17.4976
    axis -1.71016 2.29552 4.63832 xyz
    dof rx ry rz
  end
  begin
    id 23
    name LeftLeg
    direction 0.0498442 -0.991778 -0.117862
    length 16.5821
    axis 5.13757 15.5727 5.13348 xyz
    dof rx ry rz
  end
  begin
    id 24
    name LeftFoot
    direction 0.269026 -0.433896 0.85986
    length 3.77069
    axis -0.576502 15.6961 4.10267 xyz
    dof rx ry rz
  end
  begin
    id 25
    name LeftToes
    direction 0.277311 0.0251143 0.960452
    length 3.85048
    axis -0.576502 15.6961 4.10267 xyz
    dof rx ry rz
  end
:hierarchy
  begin
    root RightUpLegDummy SpineDummy LeftUpLegDummy
    RightUpLegDummy RightUpLeg
    RightUpLeg RightLeg
    RightLeg RightFoot
    RightFoot RightToes
    SpineDummy Spine
    Spine Spine1
    Spine1 HEadDummy LeftShoulder1Dummy RightShoulderDummy
    HEadDummy HEad
    LeftShoulder1Dummy LeftShoulder1
    LeftShoulder1 LeftArm
    LeftArm LeftForeArm
    LeftForeArm LeftHand
    RightShoulderDummy RightShoulder
    RightShoulder RightArm
    RightArm RightForeArm
    RightForeArm RightHand
    LeftUpLegDummy LeftUpLeg
    LeftUpLeg LeftLeg
    LeftLeg LeftFoot
    LeftFoot LeftToes
  end

:SAMPLES-PER-SECOND 30
:FULLY-SPECIFIED
:DEGREES
46
root  -8.64943 29.9022 37.8442 12.6981 -11.6315 -4.70791
RightUpLeg  -58.6038 -6.18136 11.6684
RightLeg  78.595 14.4985 -10.6019
RightFoot  -33.4213 0.446039 1.8725
RightToes  -5.82073e-011 -3.18055e-015 -2.98177e-016
Spine  37.2104 -0.606167 9.44341
Spine1  -19.2727 0.537519 -1.02689
HEad  -42.3063 5.17235 3.97914
LeftShoulder1  -3.88251e-019 9.70628e-020 -3.87848e-018
LeftArm  -10.9124 1.05637 -62.0544
LeftForeArm  -27.2095 -60.2773 18.7261
LeftHand  -1.34046 -9.33832 11.0899
RightShoulder  2.09064 7.68074 8.64831
RightArm  -2.8708 -2.68994 57.0411
RightForeArm  -29.7489 62.9505 -57.1685
RightHand  -6.54136 15.5582 -35.0422
LeftUpLeg  -59.9735 6.8661 -3.10279
LeftLeg  79.951 -11.5106 20.2329
LeftFoot  -33.951 -0.996268 -4.90643
LeftToes  5.79026e-011 9.70705e-012 -3.73859e-011
47
root  -8.78361 31.5627 38.3442 12.2648 -10.7831 -4.23376
RightUpLeg  -53.8029 -7.73934 11.2811
RightLeg  71.9195 13.2337 -11.0161
RightFoot  -30.4113 0.343438 1.58543
RightToes  -5.82073e-011 -3.18055e-015 -2.98177e-016
Spine  35.6533 -0.70827 8.86498
Spine1  -22.3428 0.128234 -1.37408
HEad  -40.4033 4.95015 4.59272
LeftShoulder1  -3.88251e-019 9.70628e-020 -3.87848e-018
LeftArm  -10.6767 -7.05018 -59.5706
LeftForeArm  -44.748 -73.0574 37.2697
LeftHand  -1.13997 -8.92786 9.8124
RightShoulder  0.667502 6.00797 0.12401
RightArm  -9.71827 1.35514 58.0232
RightForeArm  -48.036 66.7439 -82.0674
RightHand  -6.72718 15.738 -35.6715
LeftUpLeg  -55.0092 7.30919 -3.52507
LeftLeg  73.4007 -9.39504 19.0999
LeftFoot  -31.5168 -0.649597 -3.47887
LeftToes  5.79026e-011 9.70705e-012 -3.73859e-011
48
root  -8.92698 33.5922 39.076 11.6578 -9.98006 -3.82806
RightUpLeg  -47.5597 -10.562 11.0653
RightLeg  64.3994 12.7774 -8.532
RightFoot  -25.3384 0.196798 0.936635
RightToes  -5.82073e-011 -3.18055e-015 -2.98177e-016
Spine  33.759 -0.969679 8.12239
Spine1  -25.6635 -0.410007 -1.21754
HEad  -37.581 4.63916 5.37225
LeftShoulder1  -3.88251e-019 9.70628e-020 -3.87848e-018
LeftArm  -10.2757 -9.41692 -56.365
LeftForeArm  -98.6293 -79.4643 92.6888
LeftHand  -1.52347 -9.30209 12.5258
RightShoulder  -0.0749018 4.79668 -5.02369
RightArm  -12.9889 0.636573 55.9017
RightForeArm  -67.7255 66.3007 -106.373
RightHand  -6.49667 15.4505 -34.9779
LeftUpLeg  -48.6684 8.81462 -4.18964
LeftLeg  65.4681 -7.58664 16.3525
LeftFoot  -26.8778 -0.346005 -2.18116
LeftToes  5.79026e-011 9.70705e-012 -3.73859e-011
49
root  -8.98861 36.7675 39.9188 9.4163 -9.33894 -3.28105
RightUpLeg  -36.7348 -15.1501 9.60875
RightLeg  50.9504 14.5726 -3.35333
RightFoot  -12.7951 0.0075055 1.43579
RightToes  -5.82073e-011 -3.18055e-015 -2.98177e-016
Spine  31.3686 -1.56357 7.74963
Spine1  -26.9196 -0.973903 -1.30544
HEad  -34.0567 4.03889 5.85541
LeftShoulder1  -3.88251e-019 9.70628e-020 -3.87848e-018
LeftArm  -7.38277 -2.22743 -53.1639
LeftForeArm  -145.887 -72.5142 142.692
LeftHand  -2.70041 -11.2501 19.2993
RightShoulder  -0.175532 4.71612 -5.89612
RightArm  -10.1919 -7.01114 52.5048
RightForeArm  -83.8088 62.5773 -126.283
RightHand  -6.79844 16.2876 -35.1616
LeftUpLeg  -37.8613 10.6866 -4.22924
LeftLeg  51.5049 -6.04493 11.5655
LeftFoot  -14.1941 -0.0512221 -1.93526
LeftToes  5.79026e-011 9.70705e-012 -3.73859e-011
50
root  -9.09365 40.8547 41.1519 7.25643 -9.09303 -1.70936
RightUpLeg  -22.2714 -15.4529 4.87228
RightLeg  28.7714 13.8017 0.250043
RightFoot  7.10048 -0.9963 4.95478
RightToes  -5.82073e-011 -3.18055e-015 -2.98177e-016
Spine  24.6315 -1.66267 6.58459
Spine1  -22.9262 -1.0929 -2.32915
HEad  -29.7092 3.48514 5.72607
LeftShoulder1  -3.88251e-019 9.70628e-020 -3.87848e-018
LeftArm  0.409178 13.6996 -50.739
LeftForeArm  -156.498 -64.1795 156.146
LeftHand  -4.12821 -13.089 26.3529
RightShoulder  -0.0168326 4.93465 -4.65583
RightArm  -1.96609 -20.4529 48.9094
RightForeArm  -93.6872 58.0216 -138.179
RightHand  -7.35946 17.1574 -36.509
LeftUpLeg  -23.6506 10.3141 -3.96615
LeftLeg  29.7135 -4.61795 6.36501
LeftFoot  6.47924 0.745207 -3.86056
LeftToes  5.79026e-011 9.70705e-012 -3.73859e-011
51
root  -9.32192 44.2594 42.7567 8.19113 -9.70288 0.227402
RightUpLeg  -11.3224 -2.11486 -1.91823
RightLeg  8.33329 1.5372 0.964208
RightFoot  23.677 -3.50946 10.3164
RightToes  -5.82073e-011 -3.18055e-015 -2.98177e-016
Spine  11.901 -0.749197 4.66165
Spine1  -15.7867 -0.459793 -3.5917
HEad  -24.3342 3.28764 5.23935
LeftShoulder1  -3.88251e-019 9.70628e-020 -3.87848e-018
LeftArm  11.6286 33.014 -47.5767
LeftForeArm  -156.305 -62.3518 158.143
LeftHand  -4.66721 -14.0392 28.1651
RightShoulder  0.0878615 4.3995 -3.39817
RightArm  9.08843 -35.5069 45.5101
RightForeArm  -96.622 56.3484 -141.556
RightHand  -7.42024 16.8744 -37.2198
LeftUpLeg  -13.3158 3.74408 -3.63587
LeftLeg  10.4426 -1.01179 3.25061
LeftFoot  24.0592 2.78109 -8.10671
LeftToes  5.79026e-011 9.70705e-012 -3.73859e-011
52
root  -9.43155 46.7565 43.8984 11.5839 -11.0673 0.617709
RightUpLeg  -12.7797 -3.48149 -0.814064
RightLeg  9.28172 8.1345 0.544169
RightFoot  27.0839 -5.21835 13.9406
RightToes  -5.82073e-011 -3.18055e-015 -2.98177e-016
Spine  0.71812 0.33548 4.51335
Spine1  -11.7356 0.395729 -3.77897
HEad  -19.14 3.42173 4.82547
LeftShoulder1  -3.88251e-019 9.70628e-020 -3.87848e-018
LeftArm  21.6283 50.3797 -42.6553
LeftForeArm  -148.567 -67.0016 152.645
LeftHand  -3.66842 -13.9356 22.3805
RightShoulder  0.274206 3.74645 -1.19163
RightArm  20.3593 -48.4392 40.2572
RightForeArm  -92.8093 57.905 -138.553
RightHand  -6.83833 16.0464 -35.725
LeftUpLeg  -13.1872 -3.10919 -3.31394
LeftLeg  8.83123 1.01753 2.88011
LeftFoot  29.2689 4.64234 -11.8105
LeftToes  5.79026e-011 9.70705e-012 -3.73859e-011
53
root  -9.37207 48.5747 44.1862 12.8493 -11.9523 -0.121323
RightUpLeg  -20.4324 -11.9864 2.85129
RightLeg  32.124 23.6248 4.13264
RightFoot  20.7926 -4.40902 13.971
RightToes  -5.82073e-011 -3.18055e-015 -2.98177e-016
Spine  -0.0619174 0.757683 5.53006
Spine1  -14.0626 0.70761 -3.1974
HEad  -16.874 3.85987 4.58063
LeftShoulder1  -3.88251e-019 9.70628e-020 -3.87848e-018
LeftArm  26.5364 62.8309 -38.1696
LeftForeArm  -124.952 -74.6855 134.168
LeftHand  -2.41899 -13.7498 15.2482
RightShoulder  1.03247 4.52315 4.60071
RightArm  31.8957 -56.9057 27.6828
RightForeArm  -84.6703 60.1043 -133.123
RightHand  -6.19526 15.6475 -33.1609
LeftUpLeg  -19.5903 3.47945 -4.59318
LeftLeg  26.9746 -9.10115 3.4434
LeftFoot  25.8988 4.46603 -12.3329
LeftToes  5.79026e-011 9.70705e-012 -3.73859e-011
